# xmcd
#
# Track frame offsets:
#	150
#	21072
#	42103
#	56933
#	86856
#	95651
#	110632
#
# Disc length: 1682 seconds
#
# Revision: 1
# Processed by: cddbd v1.5.2PL0 Copyright (c) Steve Scherf et al.
# Submitted via: audiograbber 1.83.01
#
DISCID=5c069007
DTITLE=girl and the machine - 2005­­¶qª©
DYEAR=2005
DGENRE=
TTITLE0=inside outside
TTITLE1=dharma
TTITLE2=we take the train
TTITLE3=elderado brown
TTITLE4=honeyjump
TTITLE5=eyes on u (jap - chine version)
TTITLE6=Buddha is sleeping
EXTD=
EXTT0=
EXTT1=
EXTT2=
EXTT3=
EXTT4=
EXTT5=
EXTT6=
PLAYORDER=
